<svg xmlns="http://www.w3.org/2000/svg" width="20" height="20" viewBox="0 0 24 24" fill="none">
  <path
    d="M12 .5C5.925 .5 .5 5.925 .5 12.001c0 5.092 3.292 9.392 7.863 10.919.574.104.792-.249.792-.555 0-.274-.01-1.003-.016-1.97-3.201.696-3.876-1.54-3.876-1.54-.522-1.33-1.274-1.685-1.274-1.685-1.041-.712.079-.697.079-.697 1.15.081 1.755 1.18 1.755 1.18 1.023 1.752 2.684 1.245 3.34.952.104-.741.399-1.245.726-1.532-2.556-.291-5.241-1.278-5.241-5.693 0-1.258.449-2.288 1.186-3.096-.119-.29-.514-1.462.113-3.048 0 0 .967-.309 3.168 1.179a10.993 10.993 0 012.885-.388c.979.004 1.964.132 2.885.388 2.2-1.488 3.165-1.179 3.165-1.179.63 1.586.235 2.758.116 3.048.74.808 1.185 1.838 1.185 3.096 0 4.424-2.689 5.398-5.252 5.684.411.355.779 1.057.779 2.132 0 1.539-.015 2.779-.015 3.157 0 .309.217.663.796.55C20.71 21.392 24 17.092 24 12.001 24 5.925 18.075.5 12 .5z"
    stroke="white" stroke-width="1.5" fill="none" />
</svg>