<svg
  className="icon"
  xmlns="http://www.w3.org/2000/svg"
  width="20"
  height="20"
  viewBox="0 0 20 20"
  fill="none"
>
  <g clipPath="url(#clip0_37_136)">
    <path
      d="M1.66666 6.66666C1.66666 5.78261 2.01785 4.93476 2.64297 4.30964C3.26809 3.68452 4.11593 3.33333 4.99999 3.33333H15C15.884 3.33333 16.7319 3.68452 17.357 4.30964C17.9821 4.93476 18.3333 5.78261 18.3333 6.66666V13.3333C18.3333 14.2174 17.9821 15.0652 17.357 15.6903C16.7319 16.3155 15.884 16.6667 15 16.6667H4.99999C4.11593 16.6667 3.26809 16.3155 2.64297 15.6903C2.01785 15.0652 1.66666 14.2174 1.66666 13.3333V6.66666Z"
      stroke="white"
      strokeWidth="1.5"
      strokeLinecap="round"
      strokeLinejoin="round"
    />
    <path
      d="M8.33334 7.5L12.5 10L8.33334 12.5V7.5Z"
      stroke="white"
      strokeWidth="1.5"
      strokeLinecap="round"
      strokeLinejoin="round"
    />
  </g>
  <defs>
    <clipPath id="clip0_37_136">
      <rect width="20" height="20" fill="white" />
    </clipPath>
  </defs>
</svg>